<?xml version="1.0" encoding="UTF-8"?>
<svg width="636px" height="384px" viewBox="0 0 636 384" version="1.1" xmlns="http://www.w3.org/2000/svg" xmlns:xlink="http://www.w3.org/1999/xlink">
    <title>编组 10</title>
    <defs>
        <linearGradient x1="64.5448989%" y1="50.7585086%" x2="0%" y2="50%" id="linearGradient-1">
            <stop stop-color="#1111A2" offset="0%"></stop>
            <stop stop-color="#17327A" offset="100%"></stop>
        </linearGradient>
        <linearGradient x1="11.5772264%" y1="25.6021618%" x2="76.0394774%" y2="89.9241673%" id="linearGradient-2">
            <stop stop-color="#6001FF" offset="0%"></stop>
            <stop stop-color="#A541FF" offset="100%"></stop>
        </linearGradient>
        <linearGradient x1="44.4035209%" y1="40.9703395%" x2="61.079052%" y2="38.2541919%" id="linearGradient-3">
            <stop stop-color="#836EF3" offset="0%"></stop>
            <stop stop-color="#B500E5" offset="100%"></stop>
        </linearGradient>
        <linearGradient x1="72.5628201%" y1="50%" x2="-5.26470136%" y2="36.9669095%" id="linearGradient-4">
            <stop stop-color="#1E1EAF" offset="0%"></stop>
            <stop stop-color="#212196" offset="54.1464783%"></stop>
            <stop stop-color="#091C50" offset="100%"></stop>
        </linearGradient>
        <linearGradient x1="64.5448989%" y1="50.7585086%" x2="0%" y2="50%" id="linearGradient-5">
            <stop stop-color="#2222CE" offset="0%"></stop>
            <stop stop-color="#0D276F" offset="100%"></stop>
        </linearGradient>
        <linearGradient x1="3.11483745%" y1="54.0076521%" x2="93.4794054%" y2="58.0422063%" id="linearGradient-6">
            <stop stop-color="#4F01AC" offset="0%"></stop>
            <stop stop-color="#7000FF" offset="100%"></stop>
        </linearGradient>
        <linearGradient x1="17.30315%" y1="42.6972208%" x2="97.6507801%" y2="50%" id="linearGradient-7">
            <stop stop-color="#5212FF" offset="0%"></stop>
            <stop stop-color="#8600FF" offset="100%"></stop>
        </linearGradient>
        <linearGradient x1="90.7241641%" y1="37.5783074%" x2="9.34191162%" y2="60.0692406%" id="linearGradient-8">
            <stop stop-color="#4D96FF" offset="0%"></stop>
            <stop stop-color="#7563FF" offset="100%"></stop>
        </linearGradient>
        <linearGradient x1="74.55554%" y1="35.9276793%" x2="19.3416549%" y2="78.8034169%" id="linearGradient-9">
            <stop stop-color="#7F8BFF" offset="0%"></stop>
            <stop stop-color="#43FCFF" offset="100%"></stop>
        </linearGradient>
        <linearGradient x1="42.5561275%" y1="37.6248195%" x2="80.5162422%" y2="57.1432706%" id="linearGradient-10">
            <stop stop-color="#FFFFFF" offset="0%"></stop>
            <stop stop-color="#ECECEC" offset="100%"></stop>
        </linearGradient>
        <linearGradient x1="3.11483745%" y1="53.8016381%" x2="93.4794054%" y2="57.6287954%" id="linearGradient-11">
            <stop stop-color="#4F01AC" offset="0%"></stop>
            <stop stop-color="#7000FF" offset="100%"></stop>
        </linearGradient>
        <linearGradient x1="17.30315%" y1="42.9643729%" x2="97.6507801%" y2="50%" id="linearGradient-12">
            <stop stop-color="#5212FF" offset="0%"></stop>
            <stop stop-color="#8600FF" offset="100%"></stop>
        </linearGradient>
        <linearGradient x1="90.7241641%" y1="38.2072626%" x2="9.34191162%" y2="59.5593985%" id="linearGradient-13">
            <stop stop-color="#4D96FF" offset="0%"></stop>
            <stop stop-color="#7563FF" offset="100%"></stop>
        </linearGradient>
        <linearGradient x1="74.55554%" y1="36.6402117%" x2="19.3416549%" y2="77.3449959%" id="linearGradient-14">
            <stop stop-color="#7F8BFF" offset="0%"></stop>
            <stop stop-color="#43FCFF" offset="100%"></stop>
        </linearGradient>
        <linearGradient x1="42.5561275%" y1="38.0789156%" x2="80.5162422%" y2="56.8811547%" id="linearGradient-15">
            <stop stop-color="#FFFFFF" offset="0%"></stop>
            <stop stop-color="#ECECEC" offset="100%"></stop>
        </linearGradient>
        <linearGradient x1="3.11483745%" y1="53.8252141%" x2="93.4794054%" y2="57.6761056%" id="linearGradient-16">
            <stop stop-color="#4F01AC" offset="0%"></stop>
            <stop stop-color="#7000FF" offset="100%"></stop>
        </linearGradient>
        <linearGradient x1="17.30315%" y1="42.9898874%" x2="97.6507801%" y2="50%" id="linearGradient-17">
            <stop stop-color="#5212FF" offset="0%"></stop>
            <stop stop-color="#8600FF" offset="100%"></stop>
        </linearGradient>
        <linearGradient x1="90.7241641%" y1="37.9931548%" x2="9.34191162%" y2="59.732958%" id="linearGradient-18">
            <stop stop-color="#4D96FF" offset="0%"></stop>
            <stop stop-color="#7563FF" offset="100%"></stop>
        </linearGradient>
        <linearGradient x1="74.55554%" y1="36.3976527%" x2="19.3416549%" y2="77.8414689%" id="linearGradient-19">
            <stop stop-color="#7F8BFF" offset="0%"></stop>
            <stop stop-color="#43FCFF" offset="100%"></stop>
        </linearGradient>
        <linearGradient x1="42.5561275%" y1="38.1306901%" x2="80.5162422%" y2="56.8512691%" id="linearGradient-20">
            <stop stop-color="#FFFFFF" offset="0%"></stop>
            <stop stop-color="#ECECEC" offset="100%"></stop>
        </linearGradient>
        <linearGradient x1="50.7526949%" y1="-18.4029761%" x2="49.5693812%" y2="92.1549629%" id="linearGradient-21">
            <stop stop-color="#A34BF0" offset="0%"></stop>
            <stop stop-color="#72FDFF" offset="100%"></stop>
        </linearGradient>
        <linearGradient x1="93.6529433%" y1="75.270222%" x2="43.0685151%" y2="26.5118%" id="linearGradient-22">
            <stop stop-color="#B800EA" offset="0%"></stop>
            <stop stop-color="#72FDFF" offset="100%"></stop>
        </linearGradient>
        <linearGradient x1="90.9516177%" y1="37.6089896%" x2="7.69857464%" y2="60.3615497%" id="linearGradient-23">
            <stop stop-color="#00FFFF" offset="0%"></stop>
            <stop stop-color="#8850F0" offset="100%"></stop>
        </linearGradient>
        <linearGradient x1="82.4914364%" y1="0%" x2="34.6502844%" y2="63.9036638%" id="linearGradient-24">
            <stop stop-color="#B800EA" offset="0%"></stop>
            <stop stop-color="#72FDFF" offset="100%"></stop>
        </linearGradient>
        <linearGradient x1="161.899112%" y1="63.9036638%" x2="4.90120143%" y2="63.9036638%" id="linearGradient-25">
            <stop stop-color="#B800EA" offset="0%"></stop>
            <stop stop-color="#72FDFF" offset="100%"></stop>
        </linearGradient>
        <linearGradient x1="181.126889%" y1="63.9036638%" x2="4.90120143%" y2="63.9036638%" id="linearGradient-26">
            <stop stop-color="#B800EA" offset="0%"></stop>
            <stop stop-color="#72FDFF" offset="100%"></stop>
        </linearGradient>
        <linearGradient x1="70.1829244%" y1="0%" x2="12.1729664%" y2="115.128756%" id="linearGradient-27">
            <stop stop-color="#00F6FF" offset="0%"></stop>
            <stop stop-color="#A018EB" offset="100%"></stop>
        </linearGradient>
        <linearGradient x1="67.8132985%" y1="0%" x2="28.5201383%" y2="100%" id="linearGradient-28">
            <stop stop-color="#00EEFF" offset="0%"></stop>
            <stop stop-color="#9B30EE" offset="100%"></stop>
        </linearGradient>
        <linearGradient x1="74.9592407%" y1="0%" x2="38.2086701%" y2="63.9036638%" id="linearGradient-29">
            <stop stop-color="#B800EA" offset="0%"></stop>
            <stop stop-color="#72FDFF" offset="100%"></stop>
        </linearGradient>
        <linearGradient x1="126.531404%" y1="63.9036638%" x2="4.90120143%" y2="63.9036638%" id="linearGradient-30">
            <stop stop-color="#B800EA" offset="0%"></stop>
            <stop stop-color="#72FDFF" offset="100%"></stop>
        </linearGradient>
        <linearGradient x1="145.462664%" y1="34.732846%" x2="4.90120143%" y2="54.2453875%" id="linearGradient-31">
            <stop stop-color="#B800EA" offset="0%"></stop>
            <stop stop-color="#72FDFF" offset="100%"></stop>
        </linearGradient>
        <linearGradient x1="50%" y1="0%" x2="50%" y2="90.3736855%" id="linearGradient-32">
            <stop stop-color="#00FAFF" offset="0%"></stop>
            <stop stop-color="#B572F5" offset="100%"></stop>
        </linearGradient>
        <linearGradient x1="134.233421%" y1="37.2046469%" x2="4.90120143%" y2="55.6163496%" id="linearGradient-33">
            <stop stop-color="#B800EA" offset="0%"></stop>
            <stop stop-color="#72FDFF" offset="100%"></stop>
        </linearGradient>
        <linearGradient x1="50%" y1="166.664707%" x2="50%" y2="22.988277%" id="linearGradient-34">
            <stop stop-color="#B800EA" offset="0%"></stop>
            <stop stop-color="#72FDFF" offset="100%"></stop>
        </linearGradient>
        <linearGradient x1="74.9677037%" y1="28.7057947%" x2="37.8104698%" y2="39.4608719%" id="linearGradient-35">
            <stop stop-color="#6294F8" offset="0%"></stop>
            <stop stop-color="#00FFFF" offset="100%"></stop>
        </linearGradient>
        <linearGradient x1="53.705111%" y1="-7.00577039%" x2="3.3362316%" y2="116.790534%" id="linearGradient-36">
            <stop stop-color="#B800EA" offset="0%"></stop>
            <stop stop-color="#72FDFF" offset="100%"></stop>
        </linearGradient>
        <linearGradient x1="48.0578146%" y1="50%" x2="52.5898911%" y2="111.949033%" id="linearGradient-37">
            <stop stop-color="#B800EA" offset="0%"></stop>
            <stop stop-color="#72FDFF" offset="100%"></stop>
        </linearGradient>
        <linearGradient x1="46.3747018%" y1="13.166101%" x2="52.696681%" y2="93.9139677%" id="linearGradient-38">
            <stop stop-color="#B800EA" offset="0%"></stop>
            <stop stop-color="#72FDFF" offset="100%"></stop>
        </linearGradient>
        <linearGradient x1="100.866254%" y1="0%" x2="25.9695901%" y2="63.9036638%" id="linearGradient-39">
            <stop stop-color="#B800EA" offset="0%"></stop>
            <stop stop-color="#72FDFF" offset="100%"></stop>
        </linearGradient>
        <linearGradient x1="-17.7070522%" y1="30.1956264%" x2="81.5774757%" y2="64.860242%" id="linearGradient-40">
            <stop stop-color="#B800EA" offset="0%"></stop>
            <stop stop-color="#72FDFF" offset="100%"></stop>
        </linearGradient>
        <linearGradient x1="127.758199%" y1="50%" x2="-12.412587%" y2="63.3735158%" id="linearGradient-41">
            <stop stop-color="#B800EA" offset="0%"></stop>
            <stop stop-color="#72FDFF" offset="100%"></stop>
        </linearGradient>
        <linearGradient x1="-24.1297588%" y1="50%" x2="124.856039%" y2="58.1600755%" id="linearGradient-42">
            <stop stop-color="#B800EA" offset="0%"></stop>
            <stop stop-color="#72FDFF" offset="100%"></stop>
        </linearGradient>
        <linearGradient x1="40.205595%" y1="62.802559%" x2="0%" y2="45.6939965%" id="linearGradient-43">
            <stop stop-color="#B800EA" offset="0%"></stop>
            <stop stop-color="#72FDFF" offset="100%"></stop>
        </linearGradient>
        <linearGradient x1="3.42815377%" y1="41.4515369%" x2="104.319106%" y2="50%" id="linearGradient-44">
            <stop stop-color="#B800EA" offset="0%"></stop>
            <stop stop-color="#72FDFF" offset="100%"></stop>
        </linearGradient>
    </defs>
    <g id="Dark-/-Landing-page" stroke="none" stroke-width="1" fill="none" fill-rule="evenodd">
        <g id="DNFT" transform="translate(-695.000000, -5787.000000)">
            <g id="编组-10" transform="translate(695.000000, 5787.000000)">
                <g id="Group-48-Copy-5" transform="translate(122.373626, 32.175824)" fill="url(#linearGradient-1)" fill-rule="nonzero">
                    <ellipse id="Oval" cx="80.1758242" cy="44.3076923" rx="80.1758242" ry="44.3076923"></ellipse>
                </g>
                <circle id="Oval" fill="url(#linearGradient-2)" fill-rule="nonzero" cx="310.153846" cy="189.362637" r="59.0769231"></circle>
                <path d="M332.307692,139.962835 C332.307692,139.475862 334.143194,139.962835 337.814199,141.423752 L337.814199,141.423752 L342.766263,139.927909 C358.715384,150.524484 369.230769,168.67145 369.230769,189.278569 C369.230769,211.556386 356.941221,230.958972 338.782652,241.054945 C338.703814,240.991746 338.83263,240.847493 339.207077,240.61614 C343.353209,238.054437 344.598263,232.951415 345.995665,228.381232 C347.393066,223.811049 352.936881,223.456012 352.936881,218.287307 C352.936881,213.1186 352.936881,211.322463 354.316192,206.834953 C355.695505,202.347442 354.316192,199.962974 352.936881,199.962974 C351.557569,199.962974 348.30149,203.19568 345.995665,201.609622 C343.689839,200.023563 341.527034,203.19568 339.207077,203.19568 C336.88712,203.19568 336.811371,196.993573 335.060945,195.575123 C333.31052,194.156674 332.307692,191.32034 334.071402,189.243911 C335.835112,187.167482 334.071402,185.01008 334.071402,181.403083 C334.071402,177.796088 335.060945,174.981272 337.814199,174.981272 C340.567451,174.981272 340.454111,170.405993 341.527034,167.404316 C342.599958,164.402638 344.598263,166.39866 347.082561,166.39866 C349.566858,166.39866 352.955536,170.405993 354.316192,170.405993 C355.67685,170.405993 356.069162,169.532273 356.069162,167.404316 C356.069162,165.276358 357.731685,169.532273 360.308284,171.168728 C362.789454,172.744574 361.867559,169.767977 360.471326,166.747156 L360.308284,166.39866 C358.824959,163.265047 356.495957,164.42189 354.316192,162.864145 C352.136428,161.306398 351.306014,165.340344 349.992842,165.340344 C348.679669,165.340344 346.540606,161.753733 344.598263,160.557252 C342.655922,159.360771 341.527034,166.39866 339.207077,166.39866 C336.88712,166.39866 336.917363,164.265606 335.060945,161.753733 C333.204527,159.24186 341.527034,159.915693 341.527034,158.739032 C341.527034,157.635911 338.263799,154.886471 337.855895,154.547099 L337.814199,154.512561 C337.814199,154.512561 339.207077,150.839314 339.207077,149.62075 C339.207077,148.402185 337.814199,147.061878 335.060945,147.061878 C332.307692,147.061878 334.071402,144.240833 334.071402,143.076629 C334.071402,141.912424 332.307692,140.693294 332.307692,139.962835 Z" id="Combined-Shape" fill="url(#linearGradient-3)" fill-rule="nonzero"></path>
                <g id="Group-48-Copy-3" transform="translate(0.000000, 237.890110)" fill="url(#linearGradient-4)" fill-rule="nonzero">
                    <ellipse id="Oval" cx="131.494594" cy="72.6680648" rx="131.494594" ry="72.6680648"></ellipse>
                </g>
                <g id="Group-48-Copy-4" transform="translate(424.087912, 171.428571)" fill="url(#linearGradient-5)" fill-rule="nonzero">
                    <ellipse id="Oval" cx="105.462672" cy="58.2820029" rx="105.462672" ry="58.2820029"></ellipse>
                </g>
                <g id="Group-49" transform="translate(144.527473, 34.285714)" fill-rule="nonzero">
                    <ellipse id="Oval-Copy-14" fill="url(#linearGradient-6)" cx="58.021978" cy="41.1428571" rx="58.021978" ry="33.7582418"></ellipse>
                    <ellipse id="Oval" fill="url(#linearGradient-7)" cx="58.021978" cy="34.2857143" rx="58.021978" ry="34.2857143"></ellipse>
                    <ellipse id="Oval-Copy-15" fill="url(#linearGradient-8)" cx="58.5494505" cy="35.3406593" rx="43.7802198" ry="25.8461538"></ellipse>
                    <ellipse id="Oval" fill="url(#linearGradient-9)" cx="58.5494505" cy="30.0659341" rx="43.7802198" ry="25.8461538"></ellipse>
                    <ellipse id="Oval" fill="url(#linearGradient-10)" cx="58.5494505" cy="29.5384615" rx="27.956044" ry="15.8241758"></ellipse>
                </g>
                <g id="Group-49-Copy-2" transform="translate(450.461538, 179.868132)" fill-rule="nonzero">
                    <ellipse id="Oval-Copy-14" fill="url(#linearGradient-11)" cx="79.1208791" cy="55.3846154" rx="79.1208791" ry="44.8351648"></ellipse>
                    <ellipse id="Oval" fill="url(#linearGradient-12)" cx="79.1208791" cy="45.8901099" rx="79.1208791" ry="45.8901099"></ellipse>
                    <ellipse id="Oval-Copy-15" fill="url(#linearGradient-13)" cx="79.6483516" cy="46.9450549" rx="59.6043956" ry="34.2857143"></ellipse>
                    <ellipse id="Oval" fill="url(#linearGradient-14)" cx="79.6483516" cy="40.6153846" rx="59.6043956" ry="34.2857143"></ellipse>
                    <ellipse id="Oval" fill="url(#linearGradient-15)" cx="80.1758242" cy="39.032967" rx="37.978022" ry="21.0989011"></ellipse>
                </g>
                <g id="Group-49-Copy" transform="translate(31.648352, 246.329670)" fill-rule="nonzero">
                    <ellipse id="Oval-Copy-14" fill="url(#linearGradient-16)" cx="100.21978" cy="69.6263736" rx="100.21978" ry="56.967033"></ellipse>
                    <ellipse id="Oval" fill="url(#linearGradient-17)" cx="100.21978" cy="58.021978" rx="100.21978" ry="58.021978"></ellipse>
                    <ellipse id="Oval-Copy-15" fill="url(#linearGradient-18)" cx="100.747253" cy="59.6043956" rx="75.4285714" ry="43.7802198"></ellipse>
                    <ellipse id="Oval" fill="url(#linearGradient-19)" cx="100.747253" cy="51.1648352" rx="75.4285714" ry="43.7802198"></ellipse>
                    <ellipse id="Oval" fill="url(#linearGradient-20)" cx="101.274725" cy="50.1098901" rx="48.5274725" ry="26.9010989"></ellipse>
                </g>
                <g id="Group-53" transform="translate(184.038046, 0.000000)" fill-rule="nonzero">
                    <polygon id="Path-68" fill="url(#linearGradient-21)" points="4.14187842 14.769823 4.14187842 64.4973927 10.7011425 68.2300294 10.7011425 18.5569571"></polygon>
                    <polygon id="Path-70-Copy-2" fill="url(#linearGradient-22)" points="6.23368102 63.9047538 6.23368102 70.7875543 12.3681063 74.5878121 12.3681063 67.1019638"></polygon>
                    <path d="M5.71692054,21.0526136 L0.249277134,17.5488026 L4.14187842,14.769823 L4.59951669,14.499505 C13.392372,9.30770086 19.0057944,6.10786703 21.4397836,4.90000346 C25.1537156,3.05697024 25.6943391,3.04062225 28.406366,3.38573468 C31.118393,3.73084712 37.2724858,8.00147944 35.8857289,7.49299556 C34.9612242,7.15400631 32.5779898,7.43308908 28.7360257,8.33024387 L28.7360257,8.33024387 L10.7011425,18.5569571 L5.71692054,21.0526136 Z" id="Combined-Shape" fill="url(#linearGradient-23)"></path>
                    <polygon id="Path-70-Copy-3" fill="url(#linearGradient-24)" points="14.6403868 59.2496149 14.6403868 66.2429933 20.774812 69.7645403 20.774812 62.4468249"></polygon>
                    <polygon id="Path-70" fill="url(#linearGradient-25)" points="6.23368102 7.90023881 6.23368102 13.5205564 12.3681063 17.0421035 12.3681063 11.0974489"></polygon>
                    <polygon id="Path-70-Copy" fill="url(#linearGradient-26)" points="14.863464 2.99333123 14.863464 9.43907781 20.774812 12.9575286 20.774812 6.19602451"></polygon>
                    <path d="M27.0810464,15.4473122 C26.0455869,20.4354611 24.6255817,23.7156261 22.8210305,25.2878073 C21.0164793,26.8599884 18.9171484,28.1883327 16.523038,29.2728399 L17.0839064,36.9162091 L27.8646561,30.8667285 L33.7003837,24.419716 L33.7003837,14.769823 L29.8436655,13.7427683 L27.0810464,15.4473122 Z" id="Path-73" fill="url(#linearGradient-27)"></path>
                    <path d="M27.0397278,36.8092282 C27.0397278,41.7231954 25.6334953,45.0419147 22.8210305,46.7653862 C20.0085656,48.4888577 17.9092348,49.8172019 16.523038,50.7504188 L17.0839064,58.3937879 L27.8646561,52.3443074 L34.7417988,46.4591212 L34.7417988,36.8092282 L29.8436655,35.2203473 L27.0397278,36.8092282 Z" id="Path-73-Copy" fill="url(#linearGradient-28)"></path>
                    <path d="M30.2239234,36.017297 L18.4275209,43.32776 L18.4275209,56.9010776 C18.4275209,56.9010776 20.7485281,55.4712217 25.3905427,52.6115099 C32.3535645,48.3219421 33.7003837,44.5533844 33.7003837,40.2734132 C33.7003837,37.4200991 32.5415637,36.0014383 30.2239234,36.017297 Z M28.787266,15.4982214 L28.6094814,15.5272499 L18.1598982,22.1195431 L18.097251,35.1283023 C20.2874883,34.3860896 23.027196,33.0110486 26.3163741,31.0031794 C31.2501412,27.9913756 32.2101802,24.0238689 32.2101802,19.4526689 C32.2101802,16.4813889 31.0692088,15.1632398 28.787266,15.4982214 Z M12.3672649,17.5986027 L12.3681063,11.1119188 L16.5855328,8.71040844 L16.5852908,15.1756784 L20.6989602,12.8133482 L20.6998013,6.18910865 L24.9172279,3.76293909 L24.9169861,10.3904239 L29.0579214,8.01249283 C34.8649654,5.91032989 38.310008,7.39467548 39.3930491,12.4655296 C40.4760903,17.5363837 39.3189666,23.0244832 35.9216782,28.9298279 C39.9282966,29.407454 41.9316057,32.6023143 41.9316057,38.5144088 C41.9316057,47.3825506 39.5307405,50.5728297 31.0565045,56.3081429 C29.2368924,57.5396457 27.299472,58.7963495 25.2442432,60.0782541 L25.2443623,67.0197455 L20.6998013,69.6739028 L20.7005607,62.8396385 C19.4740528,63.5669024 18.2116533,64.3018442 16.913362,65.0444637 L16.9126672,71.8521946 L12.3681063,74.5878121 L12.3676689,67.5952089 C11.8178611,67.8981042 11.2623523,68.2022189 10.7011425,68.5075532 L10.7009258,68.495505 L6.15720635,70.7047131 L6.15720635,64.5070776 L10.7011425,61.5576861 L10.7011425,26.6208466 L5.71692054,27.238608 L5.71692054,21.0526136 L10.7011425,18.5569571 L12.3672649,17.5986027 Z" id="Combined-Shape" fill="url(#linearGradient-29)"></path>
                    <polygon id="Path-69" fill="url(#linearGradient-30)" points="12.3806222 11.0974489 6.23368102 7.90023881 10.5058855 5.45516775 16.5980487 8.71040844"></polygon>
                    <polygon id="Path-69-Copy" fill="url(#linearGradient-31)" points="20.7123172 6.19602451 14.863464 2.99333123 18.9622146 0.633614001 24.9297438 3.76444809"></polygon>
                    <polygon id="Path-67" fill="url(#linearGradient-32)" points="0.249277134 17.5488026 0.249277134 23.5417374 5.86588239 27.238608 5.86588239 21.0733361"></polygon>
                    <polygon id="Path-66" fill="url(#linearGradient-33)" points="6.23368102 64.5070776 0 60.4047891 4.14187842 57.7057674 10.7011425 61.5576861"></polygon>
                    <polygon id="Path-67" fill="url(#linearGradient-34)" points="4.12398746e-12 60.4047891 0 66.113251 6.15720635 70.7047131 6.15720635 64.5070776"></polygon>
                </g>
                <path d="M271.535163,145.27308 C271.29154,148.076005 269.390124,150.780347 265.830913,153.386106 C260.492099,157.294745 255.836309,164.999784 255.836309,167.885998 C255.836309,169.810142 255.304792,173.836751 254.241758,179.965828 L256.529991,176.102692 C256.067536,180.660272 255.836309,183.263136 255.836309,183.911283 C255.836309,184.55943 256.916839,186.272912 259.077903,189.051728 L260.75294,189.051728 C263.433105,190.896815 264.773188,192.131079 264.773188,192.754518 C264.773188,193.689676 266.091534,196.80765 266.981299,197.765826 C267.871065,198.724004 269.029528,198.159865 269.99236,198.441934 C270.955193,198.724004 271.535163,200.038765 271.535163,201.834955 C271.535163,203.631146 269.727106,208.092362 271.535163,213.160631 C273.343221,218.228901 278.304696,224.099291 280.154937,224.658357 C282.005178,225.217423 285.715874,227.708448 285.715874,230.051611 C285.715874,232.394773 292.263606,241.872761 295.944839,244.49136 C298.398994,246.237093 300.898981,247.201511 303.444796,247.384615 C300.463722,245.549411 298.973185,243.902513 298.973185,242.443921 C298.973185,240.985329 299.306438,239.93599 299.972944,239.295905 C301.702192,237.026609 302.566816,235.439922 302.566816,234.535845 C302.566816,233.179729 303.932302,231.023052 304.661792,231.023052 C305.391282,231.023052 308.448305,230.345383 308.448305,228.715002 C308.448305,227.62808 308.666326,225.194925 309.102371,221.415539 C311.376085,218.621898 312.512942,216.547671 312.512942,215.192854 C312.512942,213.160631 310.164197,211.900489 308.448305,211.383557 C306.732412,210.866626 303.08457,209.25458 299.972944,208.326054 C296.861317,207.397528 296.987023,202.736172 294.945473,201.834955 C293.584439,201.234144 291.8273,200.861173 289.674054,200.716043 C287.568996,197.111437 285.780429,195.309135 284.308355,195.309135 C282.100243,195.309135 280.201684,194.125849 279.252208,194.125849 C278.302732,194.125849 276.118583,192.942564 275.035544,194.125849 C274.313517,194.914706 273.349637,195.649039 272.143904,196.328848 C271.382857,196.328848 270.665676,196.328848 269.99236,196.328848 C268.982388,196.328848 266.981299,195.497181 266.981299,194.125849 C266.981299,192.754518 269.264614,190.719173 267.547763,189.051728 C266.403196,187.940098 265.30117,187.60419 264.241686,188.044004 C264.534247,186.89258 265.063989,185.515006 265.830913,183.911283 C266.981299,181.505699 264.821899,181.005153 264.241686,182.159178 C263.661472,183.313203 261.751913,185.273252 260.75294,185.273252 C259.753967,185.273252 260.158584,177.535275 261.820266,175.55689 C263.481947,173.578506 265.675131,172.263354 266.981299,172.263354 C268.287468,172.263354 271.535163,171.463183 271.535163,172.263354 C271.535163,173.063525 271.22389,177.958183 272.143904,177.958183 C273.063918,177.958183 273.718376,170.553774 275.035544,170.046986 C276.352711,169.540198 280.275536,165.589281 282.291945,163.745104 C284.308355,161.900926 286.389581,160.822198 287.448658,160.822198 C288.507735,160.822198 288.795287,157.850524 290.589353,157.850524 C292.383419,157.850524 292.106865,157.850524 293.526169,157.850524 C294.472372,157.850524 295.833012,157.453235 297.608091,156.658656 C295.166769,156.391856 294.279229,155.779732 294.945473,154.822281 C295.944839,153.386106 297.973426,153.386106 298.973185,153.386106 C299.972944,153.386106 298.584673,155.705941 301.014735,155.705941 C303.444796,155.705941 302.566816,154.419107 302.566816,153.386106 C302.566816,152.353105 301.014735,149.51915 301.014735,147.803327 C301.014735,146.087505 298.973185,147.598895 298.973185,145.904141 C298.973185,144.209385 297.553881,144.047869 296.74936,144.128627 C295.944839,144.209385 293.465673,149.176999 292.027513,149.176999 C290.589353,149.176999 288.1534,151.7718 287.448658,151.7718 C286.743916,151.7718 290.716631,148.66631 289.674054,148.66631 C288.631476,148.66631 286.07453,147.679654 286.761594,145.904141 C287.448658,144.128627 292.616762,143.133778 293.526169,143.133778 C294.435576,143.133778 295.890628,143.996371 296.74936,143.133778 C297.608091,142.271186 299.972944,140.968128 299.972944,141.619657 C299.972944,142.271186 300.293888,144.128627 301.014735,144.128627 C301.735583,144.128627 302.227802,142.278988 303.444796,142.278988 C304.661792,142.278988 305.251433,141.299745 304.661792,140.336106 C304.07215,139.372468 303.229918,138.450965 304.661792,137.744816 C306.093666,137.038669 309.102371,135.948235 309.102371,137.744816 C309.102371,139.541397 307.794238,140.429349 308.448305,142.278988 C309.102371,144.128627 311.22288,145.904141 311.867911,145.904141 C312.512942,145.904141 314.151839,141.619657 315.44033,141.619657 C316.728821,141.619657 319.648352,140.010732 319.648352,138.877774 C319.648352,137.744816 316.0229,135.56044 313.616409,135.56044 C311.209917,135.56044 306.756768,135.56044 304.661792,135.56044 C302.566816,135.56044 300.972703,137.744816 299.972944,137.744816 C298.973185,137.744816 298.363509,137.744816 295.944839,137.744816 C293.526169,137.744816 289.674054,138.733423 289.674054,139.534765 C289.674054,140.336106 287.123392,140.336106 285.715874,140.336106 C284.308355,140.336106 283.491656,139.052556 280.798396,140.336106 C279.002891,141.191807 275.915145,142.837464 271.535163,145.27308 Z" id="Path-75" fill="url(#linearGradient-35)" fill-rule="nonzero"></path>
                <line x1="211.516484" y1="74.9010989" x2="276.316635" y2="143.525645" id="Path-81" stroke-opacity="0.411740603" stroke="#7B86EC" stroke-width="5" stroke-linecap="round" stroke-linejoin="round" stroke-dasharray="5,11"></line>
                <line x1="182.505495" y1="275.26169" x2="269.966203" y2="207.702786" id="Path-81-Copy" stroke-opacity="0.411740603" stroke="#7B86EC" stroke-width="5" stroke-linecap="round" stroke-linejoin="round" stroke-dasharray="5,11"></line>
                <line x1="363.956044" y1="194.637363" x2="470.505495" y2="225.230769" id="Path-81-Copy-2" stroke-opacity="0.411740603" stroke="#7B86EC" stroke-width="5" stroke-linecap="round" stroke-linejoin="round" stroke-dasharray="5,11"></line>
                <g id="编组-8" transform="translate(108.131868, 207.702786)">
                    <path d="M11.0834959,15.5395401 C28.4682969,14.4376866 41.5339554,18.1473564 50.2804714,26.6685495 C63.4002454,39.4503392 59.9641353,62.3147498 48.5950865,74.2969805 C41.0157207,82.2851343 24.8173585,86.7056483 1.26476607e-12,87.5585225 L1.26476607e-12,100.168578 C24.5355821,99.7301347 42.5389418,95.5267828 54.010079,87.5585225 C71.2167849,75.6061321 74.092486,50.3685538 70.3183871,35.4933729 C66.5442882,20.6181919 62.0150513,11.7011296 47.11659,5.01133953 C37.1842825,0.551479485 25.1732511,-0.630670552 11.0834959,1.46488942 L11.0834959,15.5395401 Z" id="路径-5备份" fill="url(#linearGradient-36)"></path>
                    <polygon id="路径-4备份" fill="url(#linearGradient-37)" points="11.0834959 5.45544173 15.5581792 89.1897843 26.9168322 76.0700268 27.5865361 5.45544173"></polygon>
                    <polygon id="路径-4" fill="url(#linearGradient-38)" points="7.97156205e-13 0.460063281 7.99360578e-13 100.168578 16.5030402 99.3019998 16.5030402 0.460063281"></polygon>
                    <path d="M-2.13162821e-13,14.0263524 C22.8287538,12.9318212 38.1271003,16.1684686 45.8950395,23.7362944 C57.5469484,35.0880333 54.4952768,55.3943303 44.3982187,66.0359663 C37.6668467,73.1303903 28.3684538,76.6964767 16.5030402,76.7342255 L16.5030402,89.0339843 C28.1182031,88.6306056 39.0196469,84.8905381 49.2073716,77.8137819 C64.4889586,67.1986475 67.0429208,44.7846974 63.6910753,31.5737798 C60.3392297,18.3628623 56.3167324,10.4434578 43.0851392,4.50213412 C34.264077,0.541251667 19.902364,-0.806105281 -2.13162821e-13,0.460063281 L-2.13162821e-13,14.0263524 Z" id="路径-5" fill="url(#linearGradient-39)"></path>
                    <path d="M26.9148344,75.5497373 L27.2190225,87.5989639 C25.6565235,88.0199867 23.6901809,88.363927 21.3199946,88.6307847 C18.9498083,88.8976425 17.3441568,89.0320588 16.5030402,89.0340335 L16.5030402,76.7342255 C16.9173699,76.714213 17.2221616,76.6993553 17.4174152,76.6896524 C19.502079,76.5860573 20.9832843,76.497831 21.8610313,76.4249734 C22.8620955,76.3418797 24.5466966,76.0501344 26.9148344,75.5497373 Z" id="路径-6" fill="url(#linearGradient-40)"></path>
                </g>
                <g id="编组-9" transform="translate(536.762267, 162.789935) rotate(-49.000000) translate(-536.762267, -162.789935) translate(481.262267, 120.289935)" fill-rule="nonzero">
                    <g id="icon-test" transform="translate(-0.000000, 17.962578)">
                        <path d="M51.8535824,23.6978071 L51.5697627,23.6978071 L51.5697627,24.1065074 L51.8649352,24.1065074 C51.9671102,24.1065074 52.137402,24.0838018 52.137402,23.9021572 C52.137402,23.7205127 51.9898158,23.6978071 51.8535824,23.6978071 L51.8535824,23.6978071 Z" id="路径" fill="#E16531"></path>
                        <path d="M83.8094065,1.09440864 C66.0309425,-2.72012771 64.4122874,9.91326898 51.0841157,9.91326898 C37.7559441,9.91326898 39.9259468,0.249399822 23.9319502,1.09440864 C7.93795366,1.93941747 -7.31772074,66.8181112 6.71463616,63.5919154 C20.7469931,60.3657195 32.8211822,47.447837 55.0385859,47.447837 C77.2559896,47.447837 88.609281,66.406893 101.948805,66.406893 C115.28833,66.406893 115.28833,8.28262912 83.8094065,1.09440864 Z M42.3461703,34.1083125 L34.0926944,34.1083125 L34.0926944,42.3617885 L25.2034623,42.3617885 L25.2034623,34.1083125 L16.9499864,34.1083125 L16.9499864,25.8548366 L25.2034623,25.8548366 L25.2034623,17.6013606 L33.4569383,17.6013606 L33.4569383,25.8548366 L42.3461703,25.8548366 L42.3461703,34.1083125 Z M80.4347699,40.4545203 C74.7243182,40.4545203 69.6382697,36.0155807 69.6382697,29.6580201 C69.6382697,23.3118123 74.7129654,19.497276 80.4347699,19.497276 C86.1565744,19.497276 91.2312701,23.9362156 91.2312701,30.2937762 C91.2312701,36.6513368 86.1452217,40.4545203 80.4347699,40.4545203 Z" id="形状备份" fill="url(#linearGradient-41)"></path>
                        <path d="M82.1882286,1.09440864 C64.4097645,-2.72012771 64.4097645,9.34788462 51.0815929,9.34788462 C37.7534212,9.34788462 37.7534212,-3.34453098 19.9749571,1.09440864 C2.19649307,5.53334827 -6.69273896,63.9547889 6.6354327,63.9547889 C19.9636044,63.9547889 28.8641892,47.447837 51.0815929,47.447837 C73.2989966,47.447837 82.1882286,63.9547889 95.527753,63.9547889 C108.867277,63.9547889 99.9666927,5.54470105 82.1882286,1.09440864 Z M38.3891773,34.1083125 L30.1357013,34.1083125 L30.1357013,42.3617885 L21.2464693,42.3617885 L21.2464693,34.1083125 L12.9929933,34.1083125 L12.9929933,25.8548366 L21.2464693,25.8548366 L21.2464693,17.6013606 L29.4999452,17.6013606 L29.4999452,25.8548366 L38.3891773,25.8548366 L38.3891773,34.1083125 Z M76.4777769,40.4545203 C70.7673251,40.4545203 65.6812766,36.0155807 65.6812766,29.6580201 C65.6812766,23.3118123 70.7559723,19.497276 76.4777769,19.497276 C82.1995814,19.497276 87.2742771,23.9362156 87.2742771,30.2937762 C87.2742771,36.6513368 82.1882286,40.4545203 76.4777769,40.4545203 Z" id="形状" fill="url(#linearGradient-42)"></path>
                    </g>
                    <path d="M54.4859192,25.3666411 C57.8877226,25.3666411 57.7571529,24.8214355 59.3830339,24.2762298 C58.8378283,23.1858186 58.2926227,21.5502017 58.2926227,19.3791151 L58.2926227,15.5724116 C58.2926227,11.7657081 61.5638564,8.49447435 65.3705599,8.49447435 L81.6724094,8.49447435 L80.07164,2.72848411e-12 L63.7446789,1.41653713 C56.6667416,1.41653713 50.6792157,7.40406311 50.6792157,14.4820003 L50.6792157,19.3791151 C50.6792157,21.5599376 48.5879737,21.7692815 48.042768,22.8596927 C49.6686491,23.950104 51.0841157,25.3666411 54.4859192,25.3666411 Z" id="路径备份" fill="url(#linearGradient-43)"></path>
                    <path d="M52.9398828,23.950104 C54.5754996,23.950104 56.2111165,23.4048983 57.8369975,22.8596927 C57.2917919,21.7692815 56.7465863,20.1336646 56.7465863,17.962578 L56.7465863,14.1558744 C56.7465863,10.3491709 60.01782,7.07793722 63.8245235,7.07793722 L78.8295312,7.07793722 L77.670899,2.72848411e-12 L62.1986425,2.72848411e-12 C55.1207053,2.72848411e-12 49.1331793,5.98752599 49.1331793,13.0654632 L49.1331793,17.962578 C49.1331793,20.1434004 48.5879737,21.7692815 48.042768,22.8596927 C49.6686491,23.950104 51.3042659,23.950104 52.9398828,23.950104 Z" id="路径" fill="url(#linearGradient-44)"></path>
                </g>
            </g>
        </g>
    </g>
</svg>